<?xml version="1.0" standalone="no"?><!-- Generator: Gravit.io --><svg xmlns="http://www.w3.org/2000/svg" xmlns:xlink="http://www.w3.org/1999/xlink" style="isolation:isolate" viewBox="0 0 33 33" width="33" height="33"><g id="Group"><g id="Group"><path d=" M 0 16.5 C 0 7.393 7.393 0 16.5 0 C 25.607 0 33 7.393 33 16.5 C 33 25.607 25.607 33 16.5 33 C 7.393 33 0 25.607 0 16.5 Z " fill="rgb(37,115,194)"/><g id="Group"><path d=" M 27.268 12.157 C 27.246 11.787 27.137 11.428 26.951 11.108 C 26.786 10.778 26.492 10.52 26.149 10.388 C 25.799 10.214 25.411 10.129 25.021 10.141 L 10.375 10.141 L 9.326 13.286 L 22.595 13.286 L 20.5 19.714 L 7.234 19.714 L 6.184 22.859 L 20.899 22.859 C 21.337 22.846 21.771 22.763 22.183 22.612 C 22.595 22.377 23.067 22.14 23.466 21.81 C 23.856 21.502 24.208 21.15 24.516 20.76 C 24.77 20.378 24.986 19.973 25.163 19.549 L 27.106 13.438 C 27.283 13.035 27.339 12.591 27.268 12.157 Z " fill="rgb(255,255,255)"/><path d=" M 14.556 15.041 L 6.749 15.041 L 5.699 17.949 L 13.586 17.949 L 14.556 15.041 Z " fill="rgb(255,255,255)"/></g></g></g></svg>