<?xml version="1.0" standalone="no"?><!-- Generator: Gravit.io --><svg xmlns="http://www.w3.org/2000/svg" xmlns:xlink="http://www.w3.org/1999/xlink" style="isolation:isolate" viewBox="8 0 33 33" width="33" height="33"><g id="Group"><path d=" M 8 16.5 C 8 7.393 15.393 0 24.5 0 C 33.607 0 41 7.393 41 16.5 C 41 25.607 33.607 33 24.5 33 C 15.393 33 8 25.607 8 16.5 Z " fill="rgb(0,40,40)"/><g id="building"><g id="Group"><g id="Group"><path d=" M 33.104 22.655 L 33.104 21.782 C 33.104 21.608 32.988 21.491 32.813 21.491 L 32.231 21.491 L 32.231 20.618 C 32.231 20.444 32.115 20.327 31.94 20.327 L 31.358 20.327 L 31.358 13.925 L 31.94 13.925 C 32.115 13.925 32.231 13.809 32.231 13.634 L 32.231 12.761 L 32.813 12.761 C 32.959 12.761 33.075 12.674 33.104 12.529 C 33.133 12.383 33.075 12.267 32.959 12.208 L 24.81 8.134 C 24.723 8.105 24.636 8.105 24.549 8.134 L 16.11 12.208 C 15.993 12.267 15.935 12.412 15.964 12.529 C 15.964 12.674 16.08 12.761 16.226 12.761 L 17.099 12.761 L 17.099 13.634 C 17.099 13.809 17.215 13.925 17.39 13.925 L 17.972 13.925 L 17.972 20.327 L 17.39 20.327 C 17.215 20.327 17.099 20.444 17.099 20.618 L 17.099 21.491 L 16.517 21.491 C 16.342 21.491 16.226 21.608 16.226 21.782 L 16.226 22.655 C 16.051 22.655 15.935 22.772 15.935 22.946 C 15.935 23.121 16.051 23.237 16.226 23.237 L 16.517 23.237 L 32.813 23.237 L 33.104 23.237 C 33.279 23.237 33.395 23.121 33.395 22.946 C 33.395 22.772 33.279 22.655 33.104 22.655 Z  M 17.681 13.343 L 17.681 12.761 L 31.649 12.761 L 31.649 13.343 L 31.067 13.343 L 29.903 13.343 L 28.157 13.343 L 26.993 13.343 L 25.247 13.343 L 24.083 13.343 L 22.337 13.343 L 21.173 13.343 L 19.427 13.343 L 18.263 13.343 L 17.681 13.343 Z  M 29.612 13.925 L 29.612 20.327 L 28.448 20.327 L 28.448 13.925 L 29.612 13.925 Z  M 26.702 13.925 L 26.702 20.327 L 25.538 20.327 L 25.538 13.925 L 26.702 13.925 Z  M 23.792 13.925 L 23.792 20.327 L 22.628 20.327 L 22.628 13.925 L 23.792 13.925 Z  M 20.882 13.925 L 20.882 20.327 L 19.718 20.327 L 19.718 13.925 L 20.882 13.925 Z  M 31.649 21.491 L 17.681 21.491 L 17.681 20.909 L 18.263 20.909 L 19.427 20.909 L 21.173 20.909 L 22.337 20.909 L 24.083 20.909 L 25.247 20.909 L 26.993 20.909 L 28.157 20.909 L 29.903 20.909 L 31.067 20.909 L 31.649 20.909 L 31.649 21.491 Z " fill="rgb(255,255,255)"/></g></g></g></g></svg>